<?xml version="1.0" encoding="UTF-8" standalone="no"?>
<!-- Created with Inkscape (http://www.inkscape.org/) -->

<svg
   width="37.431522mm"
   height="88.536659mm"
   viewBox="0 0 37.431522 88.536659"
   version="1.1"
   id="svg1"
   xml:space="preserve"
   xmlns="http://www.w3.org/2000/svg"
   xmlns:svg="http://www.w3.org/2000/svg"><defs
     id="defs1"><clipPath
       clipPathUnits="userSpaceOnUse"
       id="clipPath3"><rect
         style="fill:#505050;fill-opacity:0.434238;stroke-width:0.208645"
         id="rect3"
         width="47.77766"
         height="90.72258"
         x="149.57558"
         y="46.443096" /></clipPath><clipPath
       clipPathUnits="userSpaceOnUse"
       id="clipPath3-1"><rect
         style="fill:#505050;fill-opacity:0.434238;stroke-width:0.208645"
         id="rect3-5"
         width="47.77766"
         height="90.72258"
         x="149.57558"
         y="46.443096" /></clipPath><clipPath
       clipPathUnits="userSpaceOnUse"
       id="clipPath1"><rect
         style="fill:#505050;fill-opacity:0.434238;stroke-width:0.264583"
         id="rect2"
         width="62.529228"
         height="120.31864"
         x="113.59319"
         y="41.639736" /></clipPath><clipPath
       clipPathUnits="userSpaceOnUse"
       id="clipPath3-5"><rect
         style="fill:#505050;fill-opacity:0.434238;stroke-width:0.208645"
         id="rect3-1"
         width="47.77766"
         height="90.72258"
         x="149.57558"
         y="46.443096" /></clipPath><clipPath
       clipPathUnits="userSpaceOnUse"
       id="clipPath3-1-7"><rect
         style="fill:#505050;fill-opacity:0.434238;stroke-width:0.208645"
         id="rect3-5-1"
         width="47.77766"
         height="90.72258"
         x="149.57558"
         y="46.443096" /></clipPath><clipPath
       clipPathUnits="userSpaceOnUse"
       id="clipPath1-1"><rect
         style="fill:#505050;fill-opacity:0.434238;stroke-width:0.264583"
         id="rect2-5"
         width="62.529228"
         height="120.31864"
         x="113.59319"
         y="41.639736" /></clipPath></defs><g
     id="layer1"
     transform="translate(-103.06223,-122.07168)"><g
       id="layer1-8"
       transform="matrix(0.82684203,0,0,1,-5.1316704,65.414193)"
       clip-path="url(#clipPath1-1)"><path
         style="fill:#919191;stroke:none;stroke-opacity:1;fill-opacity:1"
         d="m 168.80871,135.84799 c -0.87456,-0.32524 -2.26197,-1.03731 -3.08313,-1.58237 -3.04478,-2.02101 -4.55109,-4.32105 -5.89694,-9.00425 -0.85908,-2.98935 -1.12194,-4.69431 -1.45418,-9.43194 -0.79726,-11.3688 -1.72367,-16.713065 -4.03609,-23.283345 l -1.35024,-3.83646 -0.17866,-6.35 c -0.16346,-5.80946 -0.24297,-6.59484 -0.93405,-9.226303 -0.68683,-2.615241 -0.7294,-3.028061 -0.46899,-4.548293 0.34577,-2.018587 1.24632,-3.91439 2.06842,-4.354366 0.59879,-0.320466 1.94474,-0.260982 2.83492,0.125288 0.34669,0.150441 0.46339,0.07748 0.46449,-0.290412 0.003,-1.049887 0.59144,-2.529896 1.34821,-3.391802 0.93966,-1.070219 2.81894,-1.861738 3.9047,-1.644588 0.74222,0.148445 0.7716,0.114134 0.93377,-1.090419 0.0921,-0.684027 0.44682,-1.843864 0.78829,-2.577415 1.56234,-3.356227 4.43496,-3.739928 6.85272,-0.915327 l 0.91768,1.072112 0.17421,-1.089453 c 0.44926,-2.809497 2.80979,-5.538811 4.79041,-5.538811 1.80669,0 3.58297,2.048193 4.14778,4.782722 l 0.31035,1.502595 0.60592,-1.734019 c 0.7422,-2.124046 1.83252,-3.920196 2.82764,-4.658121 0.90834,-0.673576 3.90895,-0.780682 5.03205,-0.179616 1.91885,1.026935 3.8773,5.690624 3.8773,9.233071 0,1.790148 -0.11995,2.362784 -0.79881,3.813471 -1.66127,3.550054 -1.65669,5.260412 0.0312,11.671301 1.14225,4.338345 1.26696,7.516925 0.42208,10.758185 -0.36036,1.38244 -1.27766,3.94229 -2.03846,5.68854 -4.51353,10.359865 -5.41308,13.797305 -5.40066,20.637505 0.006,3.07164 0.13528,4.29151 0.75955,7.14375 0.96373,4.40314 1.01309,7.01002 0.17919,9.4633 -0.67737,1.99278 -2.33722,4.37173 -4.21682,6.04366 -3.30867,2.94311 -9.52702,4.23733 -13.41389,2.79181 z m 7.56137,-1.13004 c 2.88479,-0.85527 4.99014,-2.31794 6.91065,-4.80108 2.27605,-2.94286 2.88376,-6.66546 1.80304,-11.04474 -1.26008,-5.10604 -1.35789,-10.96884 -0.27113,-16.25111 0.71809,-3.490335 1.16812,-4.791025 3.85201,-11.133265 3.984,-9.41446 4.16855,-10.92645 2.28405,-18.712246 -1.50881,-6.23367 -1.43879,-8.441628 0.38172,-12.036773 0.45031,-0.889273 0.63195,-1.689428 0.63195,-2.783851 0,-2.909109 -1.46937,-6.72186 -3.0782,-7.987365 -1.04845,-0.824713 -3.08185,-0.762518 -3.96567,0.121296 -0.80775,0.807757 -2.16059,3.707607 -2.44842,5.248274 -0.31787,1.701496 0.32537,6.8369 0.89876,7.17531 2.00416,1.182851 1.84518,1.945508 -0.27763,1.331791 -0.72341,-0.209143 -2.25886,-0.47451 -3.41211,-0.589703 -1.34606,-0.134454 -2.13758,-0.334118 -2.21069,-0.557653 -0.0626,-0.191516 0.13679,-0.413762 0.44317,-0.49388 0.41539,-0.108627 0.55819,-0.356489 0.56157,-0.974707 0.002,-0.45597 0.23858,-1.722006 0.52464,-2.813412 0.66205,-2.525972 0.6599,-3.599485 -0.0108,-5.392075 -0.77833,-2.080279 -1.42715,-2.810009 -2.49843,-2.810009 -0.98405,0 -1.83541,0.819514 -2.85409,2.747309 -0.76731,1.452108 -0.80955,5.294608 -0.0867,7.888051 0.46413,1.665211 0.54344,1.776647 1.31829,1.852083 1.18797,0.115657 1.05089,0.785184 -0.2371,1.158093 -0.58386,0.169041 -1.93815,0.748795 -3.00955,1.288342 -1.44644,0.728418 -2.02465,0.904061 -2.24574,0.68219 -0.22079,-0.22157 -0.14332,-0.415501 0.29969,-0.750279 0.52678,-0.398087 0.61667,-0.764024 0.7601,-3.094569 0.30983,-5.034061 0.15059,-5.852052 -1.432,-7.356172 -0.91615,-0.870731 -2.19242,-1.016115 -2.94458,-0.335427 -0.27714,0.250815 -0.77734,1.072616 -1.11154,1.826224 -0.93585,2.110263 -0.69058,5.470417 0.71169,9.750133 l 0.40504,1.236185 0.76784,-0.440683 c 0.56041,-0.321629 0.84681,-0.361721 1.06013,-0.148403 0.21332,0.213319 -0.0874,0.653854 -1.113,1.630656 -2.76107,2.629604 -4.18341,3.52189 -4.18341,2.624393 0,-0.189177 0.1327,-0.476657 0.29489,-0.638844 0.39499,-0.394992 0.56003,-7.348904 0.20121,-8.478083 -0.33652,-1.058993 -1.07443,-1.486337 -2.20144,-1.274908 -1.61443,0.30287 -2.79258,2.284019 -2.79258,4.695966 0,1.143303 1.38697,6.951236 1.75405,7.345105 0.0588,0.06306 0.24775,-0.02624 0.41995,-0.198437 0.34918,-0.349186 1.53017,-0.429998 1.53017,-0.104707 0,0.530523 -4.44013,4.289535 -5.06678,4.289535 -0.41209,0 -0.23179,-0.70549 0.30428,-1.19063 0.46138,-0.41754 0.52732,-0.80408 0.51475,-3.017567 -0.008,-1.476016 -0.20699,-3.313942 -0.47449,-4.390763 -0.4227,-1.7016 -0.5409,-1.892015 -1.4547,-2.343535 -0.94268,-0.465796 -1.02093,-0.467624 -1.49895,-0.03503 -0.72417,0.655364 -1.37286,2.825101 -1.37286,4.591918 0,0.836339 0.26259,2.347348 0.58353,3.357798 0.50345,1.585067 0.61115,2.726727 0.78485,8.319467 l 0.20132,6.4823 1.2131,3.70416 c 2.56729,7.83915 3.39324,12.363387 4.15404,22.754167 0.51039,6.97071 1.26506,10.76467 2.77602,13.95587 1.25767,2.65624 3.72486,4.87751 6.71829,6.04863 1.5853,0.62022 5.22029,0.65797 7.18781,0.0746 z M 164.73512,67.389375 c -0.24043,-0.601515 -0.25689,-0.585054 -0.27265,0.272649 -0.0115,0.626543 0.0687,0.827306 0.25588,0.640163 0.18054,-0.18054 0.18621,-0.488915 0.0168,-0.912812 z m 7.64217,-3.944288 c 0.46481,-0.248761 0.46765,-0.32649 0.0586,-1.605666 -0.48456,-1.515264 -0.79509,-1.236704 -0.82782,0.742603 -0.02,1.209729 0.0257,1.260997 0.76924,0.863063 z m 9.16759,-1.789105 c -0.0739,-0.254662 -0.21553,-1.177396 -0.31468,-2.050521 -0.0992,-0.873125 -0.26707,-1.749349 -0.37316,-1.947165 -0.21098,-0.393412 -1.0655,2.644092 -1.0655,3.787479 0,0.595437 0.10906,0.673228 0.94387,0.673228 0.77374,0 0.91964,-0.08346 0.80947,-0.463021 z m 62.77207,74.196228 c -2.74167,-0.7437 -4.26031,-1.59343 -6.13138,-3.43073 -2.5413,-2.49544 -3.58895,-4.4735 -4.12051,-7.77987 -0.25897,-1.61083 0.0272,-4.1687 0.88231,-7.88614 0.61582,-2.67717 0.81183,-7.581 0.42008,-10.50977 -0.69724,-5.21269 -1.52015,-7.922945 -4.44076,-14.625655 -3.93194,-9.02365 -4.17456,-10.98604 -2.30616,-18.653125 1.5454,-6.341649 1.48714,-8.423021 -0.33653,-12.02186 -0.61859,-1.220725 -0.66165,-1.525295 -0.52931,-3.743624 0.11364,-1.904797 0.32516,-2.849792 1.00153,-4.474503 1.14843,-2.758648 2.56435,-4.24823 4.28095,-4.503658 1.68175,-0.250243 2.92727,0.01728 3.90303,0.838327 0.82645,0.69541 2.89984,4.61752 2.92662,5.536099 0.008,0.280414 0.24572,-0.204532 0.52789,-1.077657 1.10493,-3.418974 2.49021,-4.788569 4.58433,-4.532407 1.83653,0.224653 3.89524,2.843776 4.35577,5.541484 l 0.18066,1.058243 0.75514,-0.990041 c 1.59116,-2.086122 3.87296,-2.633596 5.44905,-1.307397 1.07293,0.902808 2.11388,2.977226 2.30539,4.594179 l 0.15161,1.280104 0.88633,-0.143833 c 0.64166,-0.104126 1.29157,0.05442 2.35421,0.574331 1.20669,0.590376 1.58429,0.947903 2.12215,2.009309 0.35985,0.71013 0.65427,1.665029 0.65427,2.121998 0,0.692393 0.0772,0.796954 0.46302,0.627434 0.85102,-0.373879 2.38245,-0.435742 2.97229,-0.120068 0.83618,0.447509 1.84622,2.846357 2.02316,4.80503 0.11955,1.32323 0.001,2.257727 -0.55743,4.404832 -0.62964,2.419633 -0.73238,3.443383 -0.91604,9.128123 l -0.20686,6.40285 -1.36042,3.83646 c -2.11929,5.97652 -3.14467,12.025435 -4.01411,23.680205 -0.44982,6.02967 -1.73187,11.30476 -3.37622,13.89169 -1.12797,1.77454 -3.53004,3.82581 -5.78538,4.94045 -1.80232,0.89076 -2.24462,0.99774 -4.41977,1.06899 -1.8907,0.0619 -2.91393,-0.0556 -4.69891,-0.5398 z m 8.56602,-1.71357 c 5.51116,-2.71562 7.40058,-6.97968 8.40597,-18.97067 0.97053,-11.57533 1.60618,-15.170565 3.97627,-22.489595 l 1.37086,-4.23333 0.20972,-6.35 c 0.15413,-4.66681 0.32942,-6.7708 0.66131,-7.9375 0.75132,-2.641172 0.93875,-3.910784 0.76167,-5.159375 -0.21531,-1.518232 -1.0981,-3.621984 -1.60083,-3.814901 -0.49721,-0.190795 -2.18772,0.510054 -2.31243,0.958683 -0.56302,2.025308 -0.77445,3.666126 -0.75197,5.835489 0.0228,2.195124 0.10983,2.687984 0.5806,3.286474 0.90122,1.14571 0.23232,1.32116 -1.22347,0.32091 -1.74956,-1.20209 -3.52955,-2.872904 -3.52955,-3.313061 0,-0.445349 0.8372,-0.478482 1.26559,-0.05009 0.1722,0.172199 0.38078,0.245407 0.4635,0.162683 0.0827,-0.08272 0.50143,-1.370082 0.93045,-2.860797 0.94867,-3.296317 1.03212,-5.658437 0.2565,-7.260659 -0.92702,-1.914975 -2.83044,-2.552184 -3.97724,-1.331467 -0.60335,0.642237 -0.62348,0.802855 -0.60013,4.790581 0.0152,2.602273 0.13105,4.232949 0.31358,4.415483 0.40536,0.405358 0.36083,0.977335 -0.0761,0.977335 -0.40339,0 -4.31621,-3.306054 -4.76042,-4.022205 -0.43226,-0.696903 0.0482,-0.911335 0.92034,-0.410777 0.58291,0.334546 0.81517,0.367605 0.8945,0.127324 0.7084,-2.145575 1.23736,-4.298278 1.49639,-6.089842 0.28154,-1.947211 0.26231,-2.349431 -0.17949,-3.754014 -1.17951,-3.749984 -3.67192,-4.175883 -5.36198,-0.916247 -0.57982,1.118303 -0.60103,1.35428 -0.43858,4.879303 0.14861,3.224647 0.23605,3.751158 0.67543,4.067167 0.2776,0.199651 0.50473,0.535096 0.50473,0.745434 0,0.478683 -0.61449,0.304222 -2.77813,-0.788753 -0.87312,-0.441063 -2.06375,-0.944693 -2.64583,-1.119178 -1.28248,-0.384435 -1.4015,-1.019374 -0.21265,-1.134437 0.77948,-0.07544 0.88107,-0.19973 1.2976,-1.5875 0.67257,-2.240768 0.79692,-5.775926 0.26003,-7.392332 -0.82204,-2.474936 -2.51402,-3.903825 -3.96382,-3.347482 -0.88612,0.340037 -2.26642,3.499233 -2.27309,5.202617 -0.002,0.402025 0.23526,1.590257 0.5263,2.640516 0.29104,1.050259 0.52917,2.344553 0.52917,2.876208 0,0.760256 0.11893,0.99775 0.55704,1.112317 0.30637,0.08012 0.5058,0.302364 0.44317,0.49388 -0.0731,0.223535 -0.86463,0.423199 -2.21069,0.557653 -1.15325,0.115193 -2.6887,0.38056 -3.41211,0.589703 -2.00624,0.580014 -2.35993,-0.386053 -0.43349,-1.184011 0.70975,-0.293987 0.75856,-0.424746 0.97354,-2.608153 0.36693,-3.726585 0.25968,-5.024043 -0.58131,-7.03211 -0.41806,-0.998212 -1.13136,-2.216777 -1.5851,-2.707923 -0.72772,-0.787703 -0.98269,-0.892992 -2.16251,-0.892992 -1.03216,0 -1.51281,0.147493 -2.1053,0.64604 -1.21729,1.024279 -2.49144,4.100963 -2.79345,6.745295 -0.2553,2.235355 -0.24753,2.289999 0.57506,4.046162 1.10075,2.350004 1.71097,5.028237 1.49273,6.551561 -0.094,0.656279 -0.59276,2.919641 -1.1083,5.029693 -1.80889,7.403582 -1.55373,10.336172 1.50786,17.330212 4.09777,9.36111 5.00569,12.749648 5.21056,19.446868 0.12566,4.10775 0.085,4.61215 -0.68895,8.53905 -0.97087,4.92627 -1.00885,6.14773 -0.2659,8.55312 0.66051,2.13847 1.31821,3.16886 3.29865,5.1678 2.66991,2.69487 5.27984,3.69569 9.3811,3.59735 2.25112,-0.054 2.71023,-0.15382 4.29258,-0.93352 z m 3.61914,-66.397241 c -0.0162,-0.635198 -0.0456,-0.6604 -0.23148,-0.198438 -0.11708,0.291042 -0.16122,0.618464 -0.0981,0.727604 0.22412,0.387406 0.34791,0.188649 0.32956,-0.529166 z m -7.12515,-5.490105 c 0,-1.733926 -0.31933,-1.876024 -0.77771,-0.346074 -0.29688,0.990866 -0.28184,1.146035 0.14098,1.455208 0.2603,0.190341 0.51006,0.346075 0.555,0.346075 0.045,0 0.0817,-0.654844 0.0817,-1.455209 z m -8.20312,-0.992187 c -5.7e-4,-0.472943 -0.21978,-1.633802 -0.48714,-2.579688 l -0.48611,-1.719791 -0.30661,2.061328 c -0.45076,3.030478 -0.44014,3.098047 0.48714,3.098047 0.71934,0 0.79366,-0.08062 0.79272,-0.859896 z"
         id="path1"
         clip-path="url(#clipPath3-5)"
         transform="translate(-20.406945,8.5244201)" /><path
         style="fill:#000000"
         d="m 168.80871,135.84799 c -0.87456,-0.32524 -2.26197,-1.03731 -3.08313,-1.58237 -3.04478,-2.02101 -4.55109,-4.32105 -5.89694,-9.00425 -0.85908,-2.98935 -1.12194,-4.69431 -1.45418,-9.43194 -0.79726,-11.3688 -1.72367,-16.713065 -4.03609,-23.283345 l -1.35024,-3.83646 -0.17866,-6.35 c -0.16346,-5.80946 -0.24297,-6.59484 -0.93405,-9.226303 -0.68683,-2.615241 -0.7294,-3.028061 -0.46899,-4.548293 0.34577,-2.018587 1.24632,-3.91439 2.06842,-4.354366 0.59879,-0.320466 1.94474,-0.260982 2.83492,0.125288 0.34669,0.150441 0.46339,0.07748 0.46449,-0.290412 0.003,-1.049887 0.59144,-2.529896 1.34821,-3.391802 0.93966,-1.070219 2.81894,-1.861738 3.9047,-1.644588 0.74222,0.148445 0.7716,0.114134 0.93377,-1.090419 0.0921,-0.684027 0.44682,-1.843864 0.78829,-2.577415 1.56234,-3.356227 4.43496,-3.739928 6.85272,-0.915327 l 0.91768,1.072112 0.17421,-1.089453 c 0.44926,-2.809497 2.80979,-5.538811 4.79041,-5.538811 1.80669,0 3.58297,2.048193 4.14778,4.782722 l 0.31035,1.502595 0.60592,-1.734019 c 0.7422,-2.124046 1.83252,-3.920196 2.82764,-4.658121 0.90834,-0.673576 3.90895,-0.780682 5.03205,-0.179616 1.91885,1.026935 3.8773,5.690624 3.8773,9.233071 0,1.790148 -0.11995,2.362784 -0.79881,3.813471 -1.66127,3.550054 -1.65669,5.260412 0.0312,11.671301 1.14225,4.338345 1.26696,7.516925 0.42208,10.758185 -0.36036,1.38244 -1.27766,3.94229 -2.03846,5.68854 -4.51353,10.359865 -5.41308,13.797305 -5.40066,20.637505 0.006,3.07164 0.13528,4.29151 0.75955,7.14375 0.96373,4.40314 1.01309,7.01002 0.17919,9.4633 -0.67737,1.99278 -2.33722,4.37173 -4.21682,6.04366 -3.30867,2.94311 -9.52702,4.23733 -13.41389,2.79181 z m 7.56137,-1.13004 c 2.88479,-0.85527 4.99014,-2.31794 6.91065,-4.80108 2.27605,-2.94286 2.88376,-6.66546 1.80304,-11.04474 -1.26008,-5.10604 -1.35789,-10.96884 -0.27113,-16.25111 0.71809,-3.490335 1.16812,-4.791025 3.85201,-11.133265 3.984,-9.41446 4.16855,-10.92645 2.28405,-18.712246 -1.50881,-6.23367 -1.43879,-8.441628 0.38172,-12.036773 0.45031,-0.889273 0.63195,-1.689428 0.63195,-2.783851 0,-2.909109 -1.46937,-6.72186 -3.0782,-7.987365 -1.04845,-0.824713 -3.08185,-0.762518 -3.96567,0.121296 -0.80775,0.807757 -2.16059,3.707607 -2.44842,5.248274 -0.31787,1.701496 0.32537,6.8369 0.89876,7.17531 2.00416,1.182851 1.84518,1.945508 -0.27763,1.331791 -0.72341,-0.209143 -2.25886,-0.47451 -3.41211,-0.589703 -1.34606,-0.134454 -2.13758,-0.334118 -2.21069,-0.557653 -0.0626,-0.191516 0.13679,-0.413762 0.44317,-0.49388 0.41539,-0.108627 0.55819,-0.356489 0.56157,-0.974707 0.002,-0.45597 0.23858,-1.722006 0.52464,-2.813412 0.66205,-2.525972 0.6599,-3.599485 -0.0108,-5.392075 -0.77833,-2.080279 -1.42715,-2.810009 -2.49843,-2.810009 -0.98405,0 -1.83541,0.819514 -2.85409,2.747309 -0.76731,1.452108 -0.80955,5.294608 -0.0867,7.888051 0.46413,1.665211 0.54344,1.776647 1.31829,1.852083 1.18797,0.115657 1.05089,0.785184 -0.2371,1.158093 -0.58386,0.169041 -1.93815,0.748795 -3.00955,1.288342 -1.44644,0.728418 -2.02465,0.904061 -2.24574,0.68219 -0.22079,-0.22157 -0.14332,-0.415501 0.29969,-0.750279 0.52678,-0.398087 0.61667,-0.764024 0.7601,-3.094569 0.30983,-5.034061 0.15059,-5.852052 -1.432,-7.356172 -0.91615,-0.870731 -2.19242,-1.016115 -2.94458,-0.335427 -0.27714,0.250815 -0.77734,1.072616 -1.11154,1.826224 -0.93585,2.110263 -0.69058,5.470417 0.71169,9.750133 l 0.40504,1.236185 0.76784,-0.440683 c 0.56041,-0.321629 0.84681,-0.361721 1.06013,-0.148403 0.21332,0.213319 -0.0874,0.653854 -1.113,1.630656 -2.76107,2.629604 -4.18341,3.52189 -4.18341,2.624393 0,-0.189177 0.1327,-0.476657 0.29489,-0.638844 0.39499,-0.394992 0.56003,-7.348904 0.20121,-8.478083 -0.33652,-1.058993 -1.07443,-1.486337 -2.20144,-1.274908 -1.61443,0.30287 -2.79258,2.284019 -2.79258,4.695966 0,1.143303 1.38697,6.951236 1.75405,7.345105 0.0588,0.06306 0.24775,-0.02624 0.41995,-0.198437 0.34918,-0.349186 1.53017,-0.429998 1.53017,-0.104707 0,0.530523 -4.44013,4.289535 -5.06678,4.289535 -0.41209,0 -0.23179,-0.70549 0.30428,-1.19063 0.46138,-0.41754 0.52732,-0.80408 0.51475,-3.017567 -0.008,-1.476016 -0.20699,-3.313942 -0.47449,-4.390763 -0.4227,-1.7016 -0.5409,-1.892015 -1.4547,-2.343535 -0.94268,-0.465796 -1.02093,-0.467624 -1.49895,-0.03503 -0.72417,0.655364 -1.37286,2.825101 -1.37286,4.591918 0,0.836339 0.26259,2.347348 0.58353,3.357798 0.50345,1.585067 0.61115,2.726727 0.78485,8.319467 l 0.20132,6.4823 1.2131,3.70416 c 2.56729,7.83915 3.39324,12.363387 4.15404,22.754167 0.51039,6.97071 1.26506,10.76467 2.77602,13.95587 1.25767,2.65624 3.72486,4.87751 6.71829,6.04863 1.5853,0.62022 5.22029,0.65797 7.18781,0.0746 z M 164.73512,67.389375 c -0.24043,-0.601515 -0.25689,-0.585054 -0.27265,0.272649 -0.0115,0.626543 0.0687,0.827306 0.25588,0.640163 0.18054,-0.18054 0.18621,-0.488915 0.0168,-0.912812 z m 7.64217,-3.944288 c 0.46481,-0.248761 0.46765,-0.32649 0.0586,-1.605666 -0.48456,-1.515264 -0.79509,-1.236704 -0.82782,0.742603 -0.02,1.209729 0.0257,1.260997 0.76924,0.863063 z m 9.16759,-1.789105 c -0.0739,-0.254662 -0.21553,-1.177396 -0.31468,-2.050521 -0.0992,-0.873125 -0.26707,-1.749349 -0.37316,-1.947165 -0.21098,-0.393412 -1.0655,2.644092 -1.0655,3.787479 0,0.595437 0.10906,0.673228 0.94387,0.673228 0.77374,0 0.91964,-0.08346 0.80947,-0.463021 z m 62.77207,74.196228 c -2.74167,-0.7437 -4.26031,-1.59343 -6.13138,-3.43073 -2.5413,-2.49544 -3.58895,-4.4735 -4.12051,-7.77987 -0.25897,-1.61083 0.0272,-4.1687 0.88231,-7.88614 0.61582,-2.67717 0.81183,-7.581 0.42008,-10.50977 -0.69724,-5.21269 -1.52015,-7.922945 -4.44076,-14.625655 -3.93194,-9.02365 -4.17456,-10.98604 -2.30616,-18.653125 1.5454,-6.341649 1.48714,-8.423021 -0.33653,-12.02186 -0.61859,-1.220725 -0.66165,-1.525295 -0.52931,-3.743624 0.11364,-1.904797 0.32516,-2.849792 1.00153,-4.474503 1.14843,-2.758648 2.56435,-4.24823 4.28095,-4.503658 1.68175,-0.250243 2.92727,0.01728 3.90303,0.838327 0.82645,0.69541 2.89984,4.61752 2.92662,5.536099 0.008,0.280414 0.24572,-0.204532 0.52789,-1.077657 1.10493,-3.418974 2.49021,-4.788569 4.58433,-4.532407 1.83653,0.224653 3.89524,2.843776 4.35577,5.541484 l 0.18066,1.058243 0.75514,-0.990041 c 1.59116,-2.086122 3.87296,-2.633596 5.44905,-1.307397 1.07293,0.902808 2.11388,2.977226 2.30539,4.594179 l 0.15161,1.280104 0.88633,-0.143833 c 0.64166,-0.104126 1.29157,0.05442 2.35421,0.574331 1.20669,0.590376 1.58429,0.947903 2.12215,2.009309 0.35985,0.71013 0.65427,1.665029 0.65427,2.121998 0,0.692393 0.0772,0.796954 0.46302,0.627434 0.85102,-0.373879 2.38245,-0.435742 2.97229,-0.120068 0.83618,0.447509 1.84622,2.846357 2.02316,4.80503 0.11955,1.32323 0.001,2.257727 -0.55743,4.404832 -0.62964,2.419633 -0.73238,3.443383 -0.91604,9.128123 l -0.20686,6.40285 -1.36042,3.83646 c -2.11929,5.97652 -3.14467,12.025435 -4.01411,23.680205 -0.44982,6.02967 -1.73187,11.30476 -3.37622,13.89169 -1.12797,1.77454 -3.53004,3.82581 -5.78538,4.94045 -1.80232,0.89076 -2.24462,0.99774 -4.41977,1.06899 -1.8907,0.0619 -2.91393,-0.0556 -4.69891,-0.5398 z m 8.56602,-1.71357 c 5.51116,-2.71562 7.40058,-6.97968 8.40597,-18.97067 0.97053,-11.57533 1.60618,-15.170565 3.97627,-22.489595 l 1.37086,-4.23333 0.20972,-6.35 c 0.15413,-4.66681 0.32942,-6.7708 0.66131,-7.9375 0.75132,-2.641172 0.93875,-3.910784 0.76167,-5.159375 -0.21531,-1.518232 -1.0981,-3.621984 -1.60083,-3.814901 -0.49721,-0.190795 -2.18772,0.510054 -2.31243,0.958683 -0.56302,2.025308 -0.77445,3.666126 -0.75197,5.835489 0.0228,2.195124 0.10983,2.687984 0.5806,3.286474 0.90122,1.14571 0.23232,1.32116 -1.22347,0.32091 -1.74956,-1.20209 -3.52955,-2.872904 -3.52955,-3.313061 0,-0.445349 0.8372,-0.478482 1.26559,-0.05009 0.1722,0.172199 0.38078,0.245407 0.4635,0.162683 0.0827,-0.08272 0.50143,-1.370082 0.93045,-2.860797 0.94867,-3.296317 1.03212,-5.658437 0.2565,-7.260659 -0.92702,-1.914975 -2.83044,-2.552184 -3.97724,-1.331467 -0.60335,0.642237 -0.62348,0.802855 -0.60013,4.790581 0.0152,2.602273 0.13105,4.232949 0.31358,4.415483 0.40536,0.405358 0.36083,0.977335 -0.0761,0.977335 -0.40339,0 -4.31621,-3.306054 -4.76042,-4.022205 -0.43226,-0.696903 0.0482,-0.911335 0.92034,-0.410777 0.58291,0.334546 0.81517,0.367605 0.8945,0.127324 0.7084,-2.145575 1.23736,-4.298278 1.49639,-6.089842 0.28154,-1.947211 0.26231,-2.349431 -0.17949,-3.754014 -1.17951,-3.749984 -3.67192,-4.175883 -5.36198,-0.916247 -0.57982,1.118303 -0.60103,1.35428 -0.43858,4.879303 0.14861,3.224647 0.23605,3.751158 0.67543,4.067167 0.2776,0.199651 0.50473,0.535096 0.50473,0.745434 0,0.478683 -0.61449,0.304222 -2.77813,-0.788753 -0.87312,-0.441063 -2.06375,-0.944693 -2.64583,-1.119178 -1.28248,-0.384435 -1.4015,-1.019374 -0.21265,-1.134437 0.77948,-0.07544 0.88107,-0.19973 1.2976,-1.5875 0.67257,-2.240768 0.79692,-5.775926 0.26003,-7.392332 -0.82204,-2.474936 -2.51402,-3.903825 -3.96382,-3.347482 -0.88612,0.340037 -2.26642,3.499233 -2.27309,5.202617 -0.002,0.402025 0.23526,1.590257 0.5263,2.640516 0.29104,1.050259 0.52917,2.344553 0.52917,2.876208 0,0.760256 0.11893,0.99775 0.55704,1.112317 0.30637,0.08012 0.5058,0.302364 0.44317,0.49388 -0.0731,0.223535 -0.86463,0.423199 -2.21069,0.557653 -1.15325,0.115193 -2.6887,0.38056 -3.41211,0.589703 -2.00624,0.580014 -2.35993,-0.386053 -0.43349,-1.184011 0.70975,-0.293987 0.75856,-0.424746 0.97354,-2.608153 0.36693,-3.726585 0.25968,-5.024043 -0.58131,-7.03211 -0.41806,-0.998212 -1.13136,-2.216777 -1.5851,-2.707923 -0.72772,-0.787703 -0.98269,-0.892992 -2.16251,-0.892992 -1.03216,0 -1.51281,0.147493 -2.1053,0.64604 -1.21729,1.024279 -2.49144,4.100963 -2.79345,6.745295 -0.2553,2.235355 -0.24753,2.289999 0.57506,4.046162 1.10075,2.350004 1.71097,5.028237 1.49273,6.551561 -0.094,0.656279 -0.59276,2.919641 -1.1083,5.029693 -1.80889,7.403582 -1.55373,10.336172 1.50786,17.330212 4.09777,9.36111 5.00569,12.749648 5.21056,19.446868 0.12566,4.10775 0.085,4.61215 -0.68895,8.53905 -0.97087,4.92627 -1.00885,6.14773 -0.2659,8.55312 0.66051,2.13847 1.31821,3.16886 3.29865,5.1678 2.66991,2.69487 5.27984,3.69569 9.3811,3.59735 2.25112,-0.054 2.71023,-0.15382 4.29258,-0.93352 z m 3.61914,-66.397241 c -0.0162,-0.635198 -0.0456,-0.6604 -0.23148,-0.198438 -0.11708,0.291042 -0.16122,0.618464 -0.0981,0.727604 0.22412,0.387406 0.34791,0.188649 0.32956,-0.529166 z m -7.12515,-5.490105 c 0,-1.733926 -0.31933,-1.876024 -0.77771,-0.346074 -0.29688,0.990866 -0.28184,1.146035 0.14098,1.455208 0.2603,0.190341 0.51006,0.346075 0.555,0.346075 0.045,0 0.0817,-0.654844 0.0817,-1.455209 z m -8.20312,-0.992187 c -5.7e-4,-0.472943 -0.21978,-1.633802 -0.48714,-2.579688 l -0.48611,-1.719791 -0.30661,2.061328 c -0.45076,3.030478 -0.44014,3.098047 0.48714,3.098047 0.71934,0 0.79366,-0.08062 0.79272,-0.859896 z"
         id="path1-6"
         clip-path="url(#clipPath3-1-7)"
         transform="matrix(-1,0,0,1,370.39074,8.7523511)" /></g></g></svg>
